<?xml version="1.0" encoding="UTF-8" standalone="no"?>
<svg width="32" height="32" viewBox="0 0 32 32" fill="none" xmlns="http://www.w3.org/2000/svg">
  <rect width="32" height="32" rx="6" fill="#2B3137"/>
  <path d="M16 7C10 7 8 11 8 14C8 17 10.5 20 16 20C21.5 20 24 17 24 14C24 11 22 7 16 7Z" fill="#FF6D3F"/>
  <path d="M10 22L11 20H15L16 22L15 24H11L10 22Z" fill="#FF6D3F"/>
  <path d="M16 24L17 22L18 20H22L23 22L22 24H16Z" fill="#FF6D3F"/>
  <path fill-rule="evenodd" clip-rule="evenodd" d="M16 8.5C13.5 8.5 11.5 10 11.5 14C11.5 18 13.5 18.5 16 18.5C18.5 18.5 20.5 18 20.5 14C20.5 10 18.5 8.5 16 8.5ZM16 10C17.5 10 19 10.5 19 14C19 17.5 17.5 17 16 17C14.5 17 13 17.5 13 14C13 10.5 14.5 10 16 10Z" fill="white"/>
  <path d="M23 22L24 20H27L28 22L27 24H24L23 22Z" fill="#FF6D3F"/>
  <path d="M4 22L5 20H8L9 22L8 24H5L4 22Z" fill="#FF6D3F"/>
  <path d="M11.5 25.5L12.5 23.5H15L16 25.5L15 27.5H12.5L11.5 25.5Z" fill="#FF6D3F"/>
  <path d="M21.5 25.5L22.5 23.5H25L26 25.5L25 27.5H22.5L21.5 25.5Z" fill="#FF6D3F"/>
</svg>
