<?xml version="1.0" encoding="UTF-8" standalone="no"?>
<svg width="512" height="512" viewBox="0 0 512 512" fill="none" xmlns="http://www.w3.org/2000/svg">
  <rect width="512" height="512" rx="100" fill="#2B3137"/>
  <path d="M259.5 102C154.5 102 116 166.5 116 220C116 273.5 158 325 259.5 325C361 325 396.5 273.5 396.5 220C396.5 166.5 364.5 102 259.5 102Z" fill="#FF6D3F"/>
  <path d="M156 356.5L171 330.5H244.5L259.5 356.5L244.5 382.5H171L156 356.5Z" fill="#FF6D3F"/>
  <path d="M259.5 382.5L274.5 356.5L289.5 330.5H363L378 356.5L363 382.5H259.5Z" fill="#FF6D3F"/>
  <path fill-rule="evenodd" clip-rule="evenodd" d="M259.5 122C214.5 122 179.5 148 179.5 220C179.5 292 214.5 305 259.5 305C304.5 305 339.5 292 339.5 220C339.5 148 304.5 122 259.5 122ZM259.5 142C291.5 142 316.5 162 316.5 220C316.5 278 291.5 285 259.5 285C227.5 285 202.5 278 202.5 220C202.5 162 227.5 142 259.5 142Z" fill="white"/>
  <path d="M378 356.5L393 330.5H452L467 356.5L452 382.5H393L378 356.5Z" fill="#FF6D3F"/>
  <path d="M45 356.5L60 330.5H119L134 356.5L119 382.5H60L45 356.5Z" fill="#FF6D3F"/>
  <path d="M177 407.5L192 381.5H236L251 407.5L236 433.5H192L177 407.5Z" fill="#FF6D3F"/>
  <path d="M344 407.5L359 381.5H403L418 407.5L403 433.5H359L344 407.5Z" fill="#FF6D3F"/>
</svg>
